<svg viewBox="0 0 820 660" xmlns="http://www.w3.org/2000/svg" font-family="-apple-system, BlinkMacSystemFont, Segoe UI, Roboto, Helvetica, Arial, sans-serif" role="img" aria-label="The pipeline after one input changes. The reads file is marked changed, so trim, align, call, filter and annotate are all marked rerun. The reference did not change, so index_reference is cached and skipped.">
<rect x="0.5" y="0.5" width="819" height="659" rx="14" fill="#ffffff" stroke="#dde3ea"/>
<text x="36" y="46" font-size="18" font-weight="800" fill="#28303a">Change one input, redo only what depends on it</text>
<text x="36" y="69" font-size="12.5" fill="#5b6675">New reads arrived for this sample. The reference did not change.</text>
<rect x="120" y="98" width="210" height="40" rx="20" fill="#fdeee8" stroke="#c85b3c" stroke-width="1.8"/>
<text x="225" y="123" text-anchor="middle" font-size="12.5" font-weight="700" fill="#28303a" font-family="ui-monospace, Menlo, monospace">reads/sampleA.fastq</text>
<rect x="194" y="87" width="63" height="21" rx="10.5" fill="#c85b3c"/><text x="225" y="102" text-anchor="middle" font-size="10" font-weight="700" fill="#ffffff">CHANGED</text>
<rect x="480" y="98" width="210" height="40" rx="20" fill="#f4f6f8" stroke="#a7b0ba" stroke-width="1.8"/>
<text x="585" y="123" text-anchor="middle" font-size="12.5" font-weight="700" fill="#28303a" font-family="ui-monospace, Menlo, monospace">ref/sars2.fasta</text>
<line x1="225" y1="138" x2="225" y2="169" stroke="#c85b3c" stroke-width="2.2"/><path d="M 225 178 l -5 -10 l 10 0 z" fill="#c85b3c"/>
<line x1="585" y1="138" x2="585" y2="169" stroke="#a7b0ba" stroke-width="2.2"/><path d="M 585 178 l -5 -10 l 10 0 z" fill="#a7b0ba"/>
<rect x="110" y="181" width="230" height="58" rx="12" fill="#fdeee8" stroke="#c85b3c" stroke-width="1.8"/>
<text x="225" y="215" text-anchor="middle" font-size="15" font-weight="800" fill="#28303a">trim</text>
<rect x="200" y="170" width="50" height="21" rx="10.5" fill="#c85b3c"/><text x="225" y="185" text-anchor="middle" font-size="10" font-weight="700" fill="#ffffff">RERUN</text>
<rect x="460" y="181" width="250" height="58" rx="12" fill="#f4f6f8" stroke="#a7b0ba" stroke-width="1.8" stroke-dasharray="5 4"/>
<text x="585" y="209" text-anchor="middle" font-size="15" font-weight="800" fill="#a7b0ba">index_reference</text>
<text x="585" y="226" text-anchor="middle" font-size="10" fill="#a7b0ba">cached, up to date</text>
<rect x="554" y="170" width="63" height="21" rx="10.5" fill="#a7b0ba"/><text x="585" y="185" text-anchor="middle" font-size="10" font-weight="700" fill="#ffffff">SKIPPED</text>
<line x1="225" y1="239" x2="365" y2="275" stroke="#c85b3c" stroke-width="2.2"/><path d="M 365 284 l -5 -10 l 10 0 z" fill="#c85b3c"/>
<line x1="585" y1="239" x2="455" y2="275" stroke="#a7b0ba" stroke-width="2.2"/><path d="M 455 284 l -5 -10 l 10 0 z" fill="#a7b0ba"/>
<rect x="285" y="287" width="250" height="58" rx="12" fill="#fdeee8" stroke="#c85b3c" stroke-width="1.8"/>
<text x="410" y="321" text-anchor="middle" font-size="15" font-weight="800" fill="#28303a">align</text>
<rect x="385" y="276" width="50" height="21" rx="10.5" fill="#c85b3c"/><text x="410" y="291" text-anchor="middle" font-size="10" font-weight="700" fill="#ffffff">RERUN</text>
<line x1="410" y1="345" x2="410" y2="367" stroke="#c85b3c" stroke-width="2.2"/><path d="M 410 376 l -5 -10 l 10 0 z" fill="#c85b3c"/>
<rect x="285" y="379" width="250" height="58" rx="12" fill="#fdeee8" stroke="#c85b3c" stroke-width="1.8"/>
<text x="410" y="413" text-anchor="middle" font-size="15" font-weight="800" fill="#28303a">call</text>
<rect x="385" y="368" width="50" height="21" rx="10.5" fill="#c85b3c"/><text x="410" y="383" text-anchor="middle" font-size="10" font-weight="700" fill="#ffffff">RERUN</text>
<line x1="410" y1="437" x2="410" y2="459" stroke="#c85b3c" stroke-width="2.2"/><path d="M 410 468 l -5 -10 l 10 0 z" fill="#c85b3c"/>
<rect x="285" y="471" width="250" height="58" rx="12" fill="#fdeee8" stroke="#c85b3c" stroke-width="1.8"/>
<text x="410" y="505" text-anchor="middle" font-size="15" font-weight="800" fill="#28303a">filter</text>
<rect x="385" y="460" width="50" height="21" rx="10.5" fill="#c85b3c"/><text x="410" y="475" text-anchor="middle" font-size="10" font-weight="700" fill="#ffffff">RERUN</text>
<line x1="410" y1="529" x2="410" y2="551" stroke="#c85b3c" stroke-width="2.2"/><path d="M 410 560 l -5 -10 l 10 0 z" fill="#c85b3c"/>
<rect x="285" y="563" width="250" height="58" rx="12" fill="#fdeee8" stroke="#c85b3c" stroke-width="1.8"/>
<text x="410" y="597" text-anchor="middle" font-size="15" font-weight="800" fill="#28303a">annotate</text>
<rect x="385" y="552" width="50" height="21" rx="10.5" fill="#c85b3c"/><text x="410" y="567" text-anchor="middle" font-size="10" font-weight="700" fill="#ffffff">RERUN</text>
<line x1="410" y1="621" x2="410" y2="607" stroke="#c85b3c" stroke-width="2.2"/><path d="M 410 616 l -5 -10 l 10 0 z" fill="#c85b3c"/>
<rect x="260" y="617" width="300" height="38" rx="19" fill="#fdeee8" stroke="#c85b3c" stroke-width="1.8"/>
<text x="410" y="641" text-anchor="middle" font-size="12.5" font-weight="700" fill="#28303a" font-family="ui-monospace, Menlo, monospace">annotated.vcf (fresh)</text>
</svg>
